<mxfile host="app.diagrams.net" modified="2023-11-20T19:10:19.209Z" agent="Mozilla/5.0 (Windows NT 10.0; Win64; x64) AppleWebKit/537.36 (KHTML, like Gecko) Chrome/119.0.0.0 Safari/537.36" etag="jBiTP9IdQtbborMgjf_R" version="22.1.3" type="github">
  <diagram name="Page-1" id="c7558073-3199-34d8-9f00-42111426c3f3">
    <mxGraphModel dx="880" dy="516" grid="1" gridSize="10" guides="1" tooltips="1" connect="1" arrows="1" fold="1" page="1" pageScale="1" pageWidth="826" pageHeight="1169" background="none" math="0" shadow="0">
      <root>
        <mxCell id="0" />
        <mxCell id="1" parent="0" />
        <mxCell id="_pmVHY2hCgl-r78cv2pe-161" value="" style="edgeStyle=elbowEdgeStyle;elbow=horizontal;strokeColor=#990000;strokeWidth=2;entryX=0;entryY=0.5;entryDx=0;entryDy=0;exitX=0.25;exitY=1;exitDx=0;exitDy=0;" edge="1" parent="1" source="4" target="_pmVHY2hCgl-r78cv2pe-154">
          <mxGeometry width="100" height="100" relative="1" as="geometry">
            <mxPoint x="80" y="480" as="sourcePoint" />
            <mxPoint x="80" y="549" as="targetPoint" />
            <Array as="points">
              <mxPoint x="60" y="520" />
            </Array>
          </mxGeometry>
        </mxCell>
        <mxCell id="_pmVHY2hCgl-r78cv2pe-155" value="" style="edgeStyle=elbowEdgeStyle;elbow=horizontal;strokeColor=#990000;strokeWidth=2" edge="1" parent="1" source="_pmVHY2hCgl-r78cv2pe-145" target="15">
          <mxGeometry width="100" height="100" relative="1" as="geometry">
            <mxPoint x="734" y="270" as="sourcePoint" />
            <mxPoint x="734" y="339" as="targetPoint" />
            <Array as="points">
              <mxPoint x="734" y="309" />
            </Array>
          </mxGeometry>
        </mxCell>
        <mxCell id="_pmVHY2hCgl-r78cv2pe-112" value="" style="edgeStyle=orthogonalEdgeStyle;rounded=0;orthogonalLoop=1;jettySize=auto;html=1;" edge="1" parent="1" source="4" target="_pmVHY2hCgl-r78cv2pe-106">
          <mxGeometry relative="1" as="geometry" />
        </mxCell>
        <mxCell id="4" value="User" style="whiteSpace=wrap;align=center;verticalAlign=middle;fontStyle=1;strokeWidth=3;fillColor=#FFFFCC" parent="1" vertex="1">
          <mxGeometry x="40" y="387" width="90" height="60" as="geometry" />
        </mxCell>
        <mxCell id="5" value="VEDUL-PRO" style="shape=process;whiteSpace=wrap;align=center;verticalAlign=middle;size=0.0475;fontStyle=1;strokeWidth=3;fillColor=#FFCCCC" parent="1" vertex="1">
          <mxGeometry x="200.99999999999991" y="391" width="400" height="50" as="geometry" />
        </mxCell>
        <mxCell id="15" value="Admin" style="whiteSpace=wrap;align=center;verticalAlign=middle;fontStyle=1;strokeWidth=3;fillColor=#FFFFCC" parent="1" vertex="1">
          <mxGeometry x="680.9999999999999" y="388" width="90" height="60" as="geometry" />
        </mxCell>
        <mxCell id="93" value="" style="edgeStyle=elbowEdgeStyle;elbow=horizontal;strokeColor=#990000;strokeWidth=2;entryX=0.173;entryY=0.98;entryDx=0;entryDy=0;entryPerimeter=0;exitX=1;exitY=0.5;exitDx=0;exitDy=0;" parent="1" source="_pmVHY2hCgl-r78cv2pe-163" target="5" edge="1">
          <mxGeometry width="100" height="100" relative="1" as="geometry">
            <mxPoint x="270" y="517" as="sourcePoint" />
            <mxPoint x="270" y="448" as="targetPoint" />
            <Array as="points">
              <mxPoint x="270" y="477" />
            </Array>
          </mxGeometry>
        </mxCell>
        <mxCell id="_pmVHY2hCgl-r78cv2pe-105" value="&lt;p style=&quot;margin: 0px; margin-top: 4px; text-align: center; text-decoration: underline;&quot;&gt;&lt;strong&gt;Daftar&lt;/strong&gt;&lt;/p&gt;&lt;p style=&quot;margin: 4px 0px 0px; text-align: center;&quot;&gt;Membuat akun&lt;/p&gt;&lt;p style=&quot;margin: 4px 0px 0px; text-align: center;&quot;&gt;&lt;span style=&quot;background-color: initial;&quot;&gt;User&lt;/span&gt;&lt;/p&gt;" style="shape=parallelogram;perimeter=parallelogramPerimeter;whiteSpace=wrap;html=1;fixedSize=1;" vertex="1" parent="1">
          <mxGeometry x="33" y="180" width="107" height="56" as="geometry" />
        </mxCell>
        <mxCell id="_pmVHY2hCgl-r78cv2pe-106" value="Daftar&lt;br&gt;Y/N?" style="rhombus;whiteSpace=wrap;html=1;" vertex="1" parent="1">
          <mxGeometry x="45" y="270" width="80" height="80" as="geometry" />
        </mxCell>
        <mxCell id="_pmVHY2hCgl-r78cv2pe-107" value="&lt;p style=&quot;margin: 0px; margin-top: 4px; text-align: center; text-decoration: underline;&quot;&gt;&lt;strong&gt;Login&lt;/strong&gt;&lt;/p&gt;&lt;p style=&quot;margin: 4px 0px 0px; text-align: center;&quot;&gt;Masukkan user&lt;/p&gt;&lt;p style=&quot;margin: 4px 0px 0px; text-align: center;&quot;&gt;yang telah dibuat&lt;/p&gt;" style="shape=parallelogram;perimeter=parallelogramPerimeter;whiteSpace=wrap;html=1;fixedSize=1;labelBorderColor=none;labelBackgroundColor=default;" vertex="1" parent="1">
          <mxGeometry x="150" y="280" width="130" height="60" as="geometry" />
        </mxCell>
        <mxCell id="_pmVHY2hCgl-r78cv2pe-110" value="" style="edgeStyle=elbowEdgeStyle;elbow=horizontal;strokeColor=#990000;strokeWidth=2;exitX=0.5;exitY=0;exitDx=0;exitDy=0;" edge="1" parent="1" source="4">
          <mxGeometry width="100" height="100" relative="1" as="geometry">
            <mxPoint x="85" y="420" as="sourcePoint" />
            <mxPoint x="85" y="351" as="targetPoint" />
            <Array as="points">
              <mxPoint x="85" y="380" />
            </Array>
          </mxGeometry>
        </mxCell>
        <mxCell id="_pmVHY2hCgl-r78cv2pe-111" value="" style="edgeStyle=elbowEdgeStyle;elbow=horizontal;strokeColor=#990000;strokeWidth=2;" edge="1" parent="1">
          <mxGeometry width="100" height="100" relative="1" as="geometry">
            <mxPoint x="85" y="270" as="sourcePoint" />
            <mxPoint x="85" y="237" as="targetPoint" />
            <Array as="points">
              <mxPoint x="85" y="266" />
            </Array>
          </mxGeometry>
        </mxCell>
        <mxCell id="_pmVHY2hCgl-r78cv2pe-117" value="" style="edgeStyle=elbowEdgeStyle;elbow=horizontal;strokeColor=#990000;strokeWidth=2;entryX=0;entryY=0.75;entryDx=0;entryDy=0;exitX=1;exitY=0.5;exitDx=0;exitDy=0;" edge="1" parent="1">
          <mxGeometry width="100" height="100" relative="1" as="geometry">
            <mxPoint x="125" y="310" as="sourcePoint" />
            <mxPoint x="161" y="310" as="targetPoint" />
            <Array as="points" />
          </mxGeometry>
        </mxCell>
        <mxCell id="_pmVHY2hCgl-r78cv2pe-119" value="" style="edgeStyle=elbowEdgeStyle;elbow=horizontal;strokeColor=#990000;strokeWidth=2;exitX=1;exitY=0.5;exitDx=0;exitDy=0;verticalAlign=middle;align=center;fontStyle=0;labelBorderColor=none;" edge="1" parent="1" source="_pmVHY2hCgl-r78cv2pe-105">
          <mxGeometry width="100" height="100" relative="1" as="geometry">
            <mxPoint x="217" y="211" as="sourcePoint" />
            <mxPoint x="217" y="280" as="targetPoint" />
            <Array as="points">
              <mxPoint x="217" y="240" />
            </Array>
          </mxGeometry>
        </mxCell>
        <mxCell id="_pmVHY2hCgl-r78cv2pe-120" value="Yes" style="text;html=1;strokeColor=none;fillColor=none;align=center;verticalAlign=middle;whiteSpace=wrap;rounded=0;" vertex="1" parent="1">
          <mxGeometry x="68" y="247" width="60" height="30" as="geometry" />
        </mxCell>
        <mxCell id="_pmVHY2hCgl-r78cv2pe-122" value="No" style="text;html=1;strokeColor=none;fillColor=none;align=center;verticalAlign=middle;whiteSpace=wrap;rounded=0;" vertex="1" parent="1">
          <mxGeometry x="107" y="284" width="60" height="30" as="geometry" />
        </mxCell>
        <mxCell id="_pmVHY2hCgl-r78cv2pe-128" value="" style="edgeStyle=elbowEdgeStyle;elbow=horizontal;strokeColor=#990000;strokeWidth=2;exitX=1;exitY=0.75;exitDx=0;exitDy=0;" edge="1" parent="1" source="_pmVHY2hCgl-r78cv2pe-107">
          <mxGeometry width="100" height="100" relative="1" as="geometry">
            <mxPoint x="298.5" y="314" as="sourcePoint" />
            <mxPoint x="299" y="390" as="targetPoint" />
            <Array as="points">
              <mxPoint x="298.5" y="343" />
            </Array>
          </mxGeometry>
        </mxCell>
        <mxCell id="_pmVHY2hCgl-r78cv2pe-130" value="&lt;p style=&quot;margin: 0px; margin-top: 4px; text-align: center; text-decoration: underline;&quot;&gt;&lt;strong&gt;Login&lt;/strong&gt;&lt;/p&gt;&lt;p style=&quot;margin: 4px 0px 0px; text-align: center;&quot;&gt;Masukkan user&lt;/p&gt;&lt;p style=&quot;margin: 4px 0px 0px; text-align: center;&quot;&gt;admin&lt;/p&gt;" style="shape=parallelogram;perimeter=parallelogramPerimeter;whiteSpace=wrap;html=1;fixedSize=1;" vertex="1" parent="1">
          <mxGeometry x="490" y="295" width="130" height="60" as="geometry" />
        </mxCell>
        <mxCell id="_pmVHY2hCgl-r78cv2pe-137" value="" style="edgeStyle=elbowEdgeStyle;elbow=horizontal;strokeColor=#990000;strokeWidth=2" edge="1" parent="1">
          <mxGeometry width="100" height="100" relative="1" as="geometry">
            <mxPoint x="310" y="390" as="sourcePoint" />
            <mxPoint x="310" y="260" as="targetPoint" />
            <Array as="points">
              <mxPoint x="310" y="350" />
            </Array>
          </mxGeometry>
        </mxCell>
        <mxCell id="_pmVHY2hCgl-r78cv2pe-138" value="&lt;p style=&quot;margin: 4px 0px 0px; text-decoration: underline;&quot;&gt;&lt;strong&gt;Program Modul&lt;/strong&gt;&lt;/p&gt;&lt;hr&gt;&lt;p style=&quot;margin: 0px; margin-left: 8px;&quot;&gt;&lt;span style=&quot;background-color: initial;&quot;&gt;Memilih&amp;nbsp;&lt;/span&gt;&lt;/p&gt;&lt;p style=&quot;margin: 0px; margin-left: 8px;&quot;&gt;&lt;span style=&quot;background-color: initial;&quot;&gt;Modul&amp;nbsp;&lt;/span&gt;&lt;span style=&quot;background-color: initial;&quot;&gt;untuk&amp;nbsp;&lt;/span&gt;&lt;/p&gt;&lt;p style=&quot;margin: 0px; margin-left: 8px;&quot;&gt;&lt;span style=&quot;background-color: initial;&quot;&gt;diprogramkan&lt;/span&gt;&lt;/p&gt;" style="verticalAlign=middle;align=center;overflow=fill;fontSize=12;fontFamily=Helvetica;html=1;rounded=1;fontStyle=1;strokeWidth=3;fillColor=#E6FFCC" vertex="1" parent="1">
          <mxGeometry x="252" y="170" width="114" height="90" as="geometry" />
        </mxCell>
        <mxCell id="_pmVHY2hCgl-r78cv2pe-139" value="&lt;p style=&quot;margin: 4px 0px 0px; text-decoration: underline;&quot;&gt;&lt;strong&gt;Check Out&lt;/strong&gt;&lt;/p&gt;&lt;hr style=&quot;&quot;&gt;&lt;p style=&quot;margin: 0px 0px 0px 8px;&quot;&gt;Proses Check Out&lt;/p&gt;&lt;p style=&quot;margin: 0px 0px 0px 8px;&quot;&gt;sebelum transaksi&lt;/p&gt;" style="verticalAlign=middle;align=center;overflow=fill;fontSize=12;fontFamily=Helvetica;html=1;rounded=1;fontStyle=1;strokeWidth=3;fillColor=#E6FFCC" vertex="1" parent="1">
          <mxGeometry x="440" y="170" width="130" height="90" as="geometry" />
        </mxCell>
        <mxCell id="_pmVHY2hCgl-r78cv2pe-140" value="" style="edgeStyle=elbowEdgeStyle;elbow=vertical;strokeColor=#990000;strokeWidth=2;entryX=0;entryY=0.5;entryDx=0;entryDy=0;" edge="1" parent="1" target="_pmVHY2hCgl-r78cv2pe-139">
          <mxGeometry width="100" height="100" relative="1" as="geometry">
            <mxPoint x="368" y="215.88" as="sourcePoint" />
            <mxPoint x="458" y="216.88" as="targetPoint" />
          </mxGeometry>
        </mxCell>
        <mxCell id="_pmVHY2hCgl-r78cv2pe-145" value="&lt;p style=&quot;margin: 0px; margin-top: 4px; text-align: center; text-decoration: underline;&quot;&gt;&lt;strong&gt;Transaksi&lt;/strong&gt;&lt;/p&gt;&lt;hr&gt;&lt;p style=&quot;margin: 0px; margin-left: 8px;&quot;&gt;Pembayaran&lt;br&gt;yang telah&amp;nbsp;&lt;br&gt;disepakati&lt;/p&gt;" style="verticalAlign=middle;align=center;overflow=fill;fontSize=12;fontFamily=Helvetica;html=1;rounded=1;fontStyle=1;strokeWidth=3;fillColor=#E6FFCC" vertex="1" parent="1">
          <mxGeometry x="671" y="169" width="110" height="90" as="geometry" />
        </mxCell>
        <mxCell id="_pmVHY2hCgl-r78cv2pe-146" value="" style="edgeStyle=elbowEdgeStyle;elbow=vertical;strokeColor=#990000;strokeWidth=2;" edge="1" parent="1" target="_pmVHY2hCgl-r78cv2pe-145">
          <mxGeometry width="100" height="100" relative="1" as="geometry">
            <mxPoint x="572" y="215.88" as="sourcePoint" />
            <mxPoint x="670" y="215" as="targetPoint" />
          </mxGeometry>
        </mxCell>
        <mxCell id="_pmVHY2hCgl-r78cv2pe-151" value="" style="edgeStyle=elbowEdgeStyle;elbow=horizontal;strokeColor=#990000;strokeWidth=2;entryX=1;entryY=0.5;entryDx=0;entryDy=0;" edge="1" parent="1" target="_pmVHY2hCgl-r78cv2pe-153">
          <mxGeometry width="100" height="100" relative="1" as="geometry">
            <mxPoint x="730" y="451" as="sourcePoint" />
            <mxPoint x="730" y="490" as="targetPoint" />
            <Array as="points">
              <mxPoint x="730" y="490" />
            </Array>
          </mxGeometry>
        </mxCell>
        <mxCell id="_pmVHY2hCgl-r78cv2pe-152" value="" style="edgeStyle=elbowEdgeStyle;elbow=horizontal;strokeColor=#990000;strokeWidth=2;entryX=1;entryY=0.5;entryDx=0;entryDy=0;" edge="1" parent="1" target="_pmVHY2hCgl-r78cv2pe-130">
          <mxGeometry width="100" height="100" relative="1" as="geometry">
            <mxPoint x="713" y="387" as="sourcePoint" />
            <mxPoint x="660" y="320" as="targetPoint" />
            <Array as="points">
              <mxPoint x="713" y="347" />
            </Array>
          </mxGeometry>
        </mxCell>
        <mxCell id="_pmVHY2hCgl-r78cv2pe-153" value="&lt;p style=&quot;margin: 0px; margin-top: 4px; text-align: center; text-decoration: underline;&quot;&gt;ACC Mod&lt;/p&gt;&lt;hr&gt;&lt;p style=&quot;margin: 0px; margin-left: 8px;&quot;&gt;Mengkonfirmasi&lt;/p&gt;&lt;p style=&quot;margin: 0px; margin-left: 8px;&quot;&gt;dan memberikan&lt;/p&gt;&lt;p style=&quot;margin: 0px; margin-left: 8px;&quot;&gt;akses ke modul&lt;/p&gt;" style="verticalAlign=middle;align=center;overflow=fill;fontSize=12;fontFamily=Helvetica;html=1;rounded=1;fontStyle=1;strokeWidth=3;fillColor=#E6FFCC" vertex="1" parent="1">
          <mxGeometry x="561" y="560" width="110" height="90" as="geometry" />
        </mxCell>
        <mxCell id="_pmVHY2hCgl-r78cv2pe-154" value="&lt;p style=&quot;margin: 0px; margin-top: 4px; text-align: center; text-decoration: underline;&quot;&gt;R. Belajar&lt;/p&gt;&lt;hr&gt;&lt;p style=&quot;margin: 0px; margin-left: 8px;&quot;&gt;mengeksplor&lt;/p&gt;&lt;p style=&quot;margin: 0px; margin-left: 8px;&quot;&gt;modul&lt;/p&gt;" style="verticalAlign=middle;align=center;overflow=fill;fontSize=12;fontFamily=Helvetica;html=1;rounded=1;fontStyle=1;strokeWidth=3;fillColor=#E6FFCC" vertex="1" parent="1">
          <mxGeometry x="358" y="570" width="110" height="70" as="geometry" />
        </mxCell>
        <mxCell id="_pmVHY2hCgl-r78cv2pe-158" value="" style="edgeStyle=elbowEdgeStyle;elbow=horizontal;strokeColor=#990000;strokeWidth=2;entryX=0.898;entryY=0.06;entryDx=0;entryDy=0;entryPerimeter=0;" edge="1" parent="1" source="_pmVHY2hCgl-r78cv2pe-130">
          <mxGeometry width="100" height="100" relative="1" as="geometry">
            <mxPoint x="550" y="350" as="sourcePoint" />
            <mxPoint x="550.2" y="394" as="targetPoint" />
            <Array as="points">
              <mxPoint x="550" y="379" />
            </Array>
          </mxGeometry>
        </mxCell>
        <mxCell id="_pmVHY2hCgl-r78cv2pe-163" value="&lt;p style=&quot;margin: 4px 0px 0px; text-decoration: underline;&quot;&gt;LogOut&lt;/p&gt;&lt;hr&gt;&lt;p style=&quot;margin: 0px; margin-left: 8px;&quot;&gt;Keluar akses&lt;/p&gt;&lt;p style=&quot;margin: 0px; margin-left: 8px;&quot;&gt;sebagai user&lt;/p&gt;" style="verticalAlign=middle;align=center;overflow=fill;fontSize=12;fontFamily=Helvetica;html=1;rounded=1;fontStyle=1;strokeWidth=3;fillColor=#E6FFCC" vertex="1" parent="1">
          <mxGeometry x="120" y="490" width="114" height="70" as="geometry" />
        </mxCell>
        <mxCell id="_pmVHY2hCgl-r78cv2pe-164" value="" style="edgeStyle=elbowEdgeStyle;elbow=horizontal;strokeColor=#990000;strokeWidth=2;exitX=0.5;exitY=1;exitDx=0;exitDy=0;entryX=0;entryY=0.5;entryDx=0;entryDy=0;" edge="1" parent="1" source="4" target="_pmVHY2hCgl-r78cv2pe-163">
          <mxGeometry width="100" height="100" relative="1" as="geometry">
            <mxPoint x="80" y="460" as="sourcePoint" />
            <mxPoint x="50" y="532" as="targetPoint" />
            <Array as="points">
              <mxPoint x="85" y="490" />
            </Array>
          </mxGeometry>
        </mxCell>
        <mxCell id="_pmVHY2hCgl-r78cv2pe-166" value="&lt;p style=&quot;margin: 4px 0px 0px; text-decoration: underline;&quot;&gt;LogOut&lt;/p&gt;&lt;hr&gt;&lt;p style=&quot;margin: 0px; margin-left: 8px;&quot;&gt;Keluar akses&lt;/p&gt;&lt;p style=&quot;margin: 0px; margin-left: 8px;&quot;&gt;sebagai Admin&lt;/p&gt;" style="verticalAlign=middle;align=center;overflow=fill;fontSize=12;fontFamily=Helvetica;html=1;rounded=1;fontStyle=1;strokeWidth=3;fillColor=#E6FFCC" vertex="1" parent="1">
          <mxGeometry x="557" y="470" width="114" height="70" as="geometry" />
        </mxCell>
        <mxCell id="_pmVHY2hCgl-r78cv2pe-168" value="" style="edgeStyle=elbowEdgeStyle;elbow=horizontal;strokeColor=#990000;strokeWidth=2;exitX=0;exitY=0.5;exitDx=0;exitDy=0;entryX=0.818;entryY=1.06;entryDx=0;entryDy=0;entryPerimeter=0;" edge="1" parent="1" source="_pmVHY2hCgl-r78cv2pe-166" target="5">
          <mxGeometry width="100" height="100" relative="1" as="geometry">
            <mxPoint x="555" y="519" as="sourcePoint" />
            <mxPoint x="520" y="441" as="targetPoint" />
            <Array as="points">
              <mxPoint x="528" y="480" />
            </Array>
          </mxGeometry>
        </mxCell>
        <mxCell id="_pmVHY2hCgl-r78cv2pe-169" value="" style="edgeStyle=elbowEdgeStyle;elbow=horizontal;strokeColor=#990000;strokeWidth=2;exitX=0.378;exitY=1.067;exitDx=0;exitDy=0;entryX=1;entryY=0.5;entryDx=0;entryDy=0;exitPerimeter=0;" edge="1" parent="1" source="15" target="_pmVHY2hCgl-r78cv2pe-166">
          <mxGeometry width="100" height="100" relative="1" as="geometry">
            <mxPoint x="720" y="470" as="sourcePoint" />
            <mxPoint x="681" y="532" as="targetPoint" />
            <Array as="points">
              <mxPoint x="715" y="480" />
            </Array>
          </mxGeometry>
        </mxCell>
        <mxCell id="_pmVHY2hCgl-r78cv2pe-170" value="Memberi akses" style="text;html=1;strokeColor=none;fillColor=none;align=center;verticalAlign=middle;whiteSpace=wrap;rounded=0;" vertex="1" parent="1">
          <mxGeometry x="140" y="401" width="60" height="30" as="geometry" />
        </mxCell>
        <mxCell id="_pmVHY2hCgl-r78cv2pe-162" value="" style="edgeStyle=elbowEdgeStyle;elbow=vertical;strokeColor=#990000;strokeWidth=2;entryX=1;entryY=0.5;entryDx=0;entryDy=0;exitX=0;exitY=0.5;exitDx=0;exitDy=0;" edge="1" parent="1" source="5" target="4">
          <mxGeometry width="100" height="100" relative="1" as="geometry">
            <mxPoint x="201" y="420" as="sourcePoint" />
            <mxPoint x="140" y="427.88" as="targetPoint" />
          </mxGeometry>
        </mxCell>
        <mxCell id="_pmVHY2hCgl-r78cv2pe-172" value="Memberi akses" style="text;html=1;strokeColor=none;fillColor=none;align=center;verticalAlign=middle;whiteSpace=wrap;rounded=0;" vertex="1" parent="1">
          <mxGeometry x="608" y="402" width="60" height="30" as="geometry" />
        </mxCell>
        <mxCell id="_pmVHY2hCgl-r78cv2pe-98" value="" style="edgeStyle=elbowEdgeStyle;elbow=vertical;strokeColor=#990000;strokeWidth=2;entryX=0;entryY=0.5;entryDx=0;entryDy=0;" edge="1" parent="1" target="15">
          <mxGeometry width="100" height="100" relative="1" as="geometry">
            <mxPoint x="601" y="417.88" as="sourcePoint" />
            <mxPoint x="691" y="418.88" as="targetPoint" />
          </mxGeometry>
        </mxCell>
        <mxCell id="_pmVHY2hCgl-r78cv2pe-175" value="Validasi" style="text;html=1;align=center;verticalAlign=middle;resizable=0;points=[];autosize=1;strokeColor=none;fillColor=none;" vertex="1" parent="1">
          <mxGeometry x="240" y="340" width="60" height="30" as="geometry" />
        </mxCell>
        <mxCell id="_pmVHY2hCgl-r78cv2pe-176" value="Validasi" style="text;html=1;align=center;verticalAlign=middle;resizable=0;points=[];autosize=1;strokeColor=none;fillColor=none;" vertex="1" parent="1">
          <mxGeometry x="547" y="356" width="60" height="30" as="geometry" />
        </mxCell>
        <mxCell id="_pmVHY2hCgl-r78cv2pe-177" value="Validasi" style="text;html=1;align=center;verticalAlign=middle;resizable=0;points=[];autosize=1;strokeColor=none;fillColor=none;" vertex="1" parent="1">
          <mxGeometry x="730" y="310" width="60" height="30" as="geometry" />
        </mxCell>
        <mxCell id="_pmVHY2hCgl-r78cv2pe-178" value="Aktivitas" style="text;html=1;align=center;verticalAlign=middle;resizable=0;points=[];autosize=1;strokeColor=none;fillColor=none;" vertex="1" parent="1">
          <mxGeometry x="51.5" y="580" width="70" height="30" as="geometry" />
        </mxCell>
        <mxCell id="_pmVHY2hCgl-r78cv2pe-179" value="Search" style="text;html=1;align=center;verticalAlign=middle;resizable=0;points=[];autosize=1;strokeColor=none;fillColor=none;" vertex="1" parent="1">
          <mxGeometry x="306" y="277" width="60" height="30" as="geometry" />
        </mxCell>
        <mxCell id="_pmVHY2hCgl-r78cv2pe-180" value="Pengecekan" style="text;html=1;align=center;verticalAlign=middle;resizable=0;points=[];autosize=1;strokeColor=none;fillColor=none;" vertex="1" parent="1">
          <mxGeometry x="358" y="217" width="90" height="30" as="geometry" />
        </mxCell>
        <mxCell id="_pmVHY2hCgl-r78cv2pe-181" value="" style="edgeStyle=elbowEdgeStyle;elbow=horizontal;strokeColor=#990000;strokeWidth=2;exitX=0.473;exitY=0;exitDx=0;exitDy=0;exitPerimeter=0;entryX=0.523;entryY=1;entryDx=0;entryDy=0;entryPerimeter=0;" edge="1" parent="1" source="_pmVHY2hCgl-r78cv2pe-154" target="5">
          <mxGeometry width="100" height="100" relative="1" as="geometry">
            <mxPoint x="420" y="570" as="sourcePoint" />
            <mxPoint x="413" y="450" as="targetPoint" />
            <Array as="points">
              <mxPoint x="410" y="500" />
            </Array>
          </mxGeometry>
        </mxCell>
        <mxCell id="_pmVHY2hCgl-r78cv2pe-183" value="Memberi akses" style="text;html=1;strokeColor=none;fillColor=none;align=center;verticalAlign=middle;whiteSpace=wrap;rounded=0;" vertex="1" parent="1">
          <mxGeometry x="490" y="590" width="60" height="30" as="geometry" />
        </mxCell>
        <mxCell id="_pmVHY2hCgl-r78cv2pe-159" value="" style="edgeStyle=elbowEdgeStyle;elbow=vertical;strokeColor=#990000;strokeWidth=2;exitX=0;exitY=0.5;exitDx=0;exitDy=0;entryX=1;entryY=0.5;entryDx=0;entryDy=0;" edge="1" parent="1" source="_pmVHY2hCgl-r78cv2pe-153" target="_pmVHY2hCgl-r78cv2pe-154">
          <mxGeometry width="100" height="100" relative="1" as="geometry">
            <mxPoint x="560" y="565.97" as="sourcePoint" />
            <mxPoint x="456" y="566" as="targetPoint" />
          </mxGeometry>
        </mxCell>
        <mxCell id="_pmVHY2hCgl-r78cv2pe-185" value="&lt;p style=&quot;margin: 0px; margin-top: 4px; text-align: center; text-decoration: underline;&quot;&gt;T/H modul&lt;/p&gt;&lt;hr&gt;&lt;p style=&quot;margin: 0px; margin-left: 8px;&quot;&gt;Menambah/&lt;/p&gt;&lt;p style=&quot;margin: 0px; margin-left: 8px;&quot;&gt;Menghapus&lt;/p&gt;&lt;p style=&quot;margin: 0px; margin-left: 8px;&quot;&gt;Modul&lt;/p&gt;" style="verticalAlign=middle;align=center;overflow=fill;fontSize=12;fontFamily=Helvetica;html=1;rounded=1;fontStyle=1;strokeWidth=3;fillColor=#E6FFCC" vertex="1" parent="1">
          <mxGeometry x="368" y="284" width="100" height="86" as="geometry" />
        </mxCell>
        <mxCell id="_pmVHY2hCgl-r78cv2pe-187" value="" style="curved=1;endArrow=classic;html=1;rounded=0;exitX=0.5;exitY=0;exitDx=0;exitDy=0;entryX=0.5;entryY=0;entryDx=0;entryDy=0;strokeColor=#990000;strokeWidth=2;" edge="1" parent="1" source="15" target="_pmVHY2hCgl-r78cv2pe-185">
          <mxGeometry width="50" height="50" relative="1" as="geometry">
            <mxPoint x="640" y="310" as="sourcePoint" />
            <mxPoint x="690" y="260" as="targetPoint" />
            <Array as="points">
              <mxPoint x="730" y="270" />
              <mxPoint x="670" y="280" />
              <mxPoint x="620" y="270" />
              <mxPoint x="520" y="280" />
              <mxPoint x="418" y="260" />
            </Array>
          </mxGeometry>
        </mxCell>
        <mxCell id="_pmVHY2hCgl-r78cv2pe-189" value="" style="edgeStyle=elbowEdgeStyle;elbow=horizontal;strokeColor=#990000;strokeWidth=2;" edge="1" parent="1">
          <mxGeometry width="100" height="100" relative="1" as="geometry">
            <mxPoint x="420" y="370" as="sourcePoint" />
            <mxPoint x="420" y="390" as="targetPoint" />
            <Array as="points" />
          </mxGeometry>
        </mxCell>
      </root>
    </mxGraphModel>
  </diagram>
</mxfile>
